<?xml version="1.0" standalone="no"?><!DOCTYPE svg PUBLIC "-//W3C//DTD SVG 1.1//EN" "http://www.w3.org/Graphics/SVG/1.1/DTD/svg11.dtd"><svg t="1722786782114" class="icon" viewBox="0 0 1027 1024" version="1.1" xmlns="http://www.w3.org/2000/svg" p-id="1290" xmlns:xlink="http://www.w3.org/1999/xlink" width="16.046875" height="16"><path d="M466.048594 971.533867C210.649238 971.533867 2.979916 763.761789 2.979916 508.413811 2.979916 253.014454 210.649238 45.293755 466.048594 45.293755s463.120056 207.7207 463.120056 463.120056c0 255.347979-207.7207 463.120056-463.120056 463.120056z m0.051378-846.861314l-0.770668-7.141523v7.141523c-51.326485 0-101.317146 10.172817-148.584779 30.158805a381.069609 381.069609 0 0 0-216.506314 464.815526 380.196185 380.196185 0 0 0 364.988337 269.631025c25.329286 0 50.864084-2.517515 75.833726-7.552546a381.223743 381.223743 0 0 0 304.824861-412.461484 381.069609 381.069609 0 0 0-379.785163-344.591326z m66.58571 416.982735a101.522657 101.522657 0 0 0-25.586175 31.648764 80.611867 80.611867 0 0 0-9.659038 39.715088 18.239141 18.239141 0 0 1-18.239142 18.290519h-47.524523a18.239141 18.239141 0 0 1-18.239141-18.290519c0-26.510977 4.521252-47.83279 13.872023-65.198508 8.528725-18.444653 32.470809-44.852874 75.114435-82.666982l10.481084-11.76553c10.892107-13.974779 16.33816-28.052313 16.338161-42.695004 0-20.602523-5.548809-36.426905-16.851939-48.397947-11.457263-11.405886-28.36058-17.31434-50.093417-17.31434-27.384401 0-46.342832 8.16908-57.851473 24.866886-8.939748 11.919664-14.18029 28.000935-15.773004 48.038302a23.376928 23.376928 0 0 1-23.376928 21.424568h-35.81037a23.274172 23.274172 0 0 1-23.376928-25.22653c3.13405-40.691267 17.365718-73.984123 42.386737-98.953764 31.186363-31.905653 72.13452-48.80897 118.27184-48.80897a157.21626 157.21626 0 0 1 106.352177 41.410557c27.435779 24.04484 41.410557 57.183561 41.410557 98.388608 0 33.292855-8.836992 61.499302-26.254088 83.797294-6.268099 7.706679-24.404485 24.558618-55.590848 51.737508z m-77.580572 110.411028c16.235405 0 29.542271 5.086408 39.560954 15.105091a50.144794 50.144794 0 0 1 15.773004 38.22513c0 14.950958-5.497431 28.000935-16.440916 38.94442a55.693603 55.693603 0 0 1-38.122375 15.105092h-0.873423c-15.053714 0-28.463336-5.446053-38.790287-15.773004a52.40542 52.40542 0 0 1-15.773004-38.430641c0-15.464737 5.343298-28.36058 15.927138-38.22513 9.86455-9.86455 22.965905-14.950958 38.738909-14.950958z" fill="#515151" p-id="1291"></path></svg>