<?xml version="1.0" standalone="no"?><!DOCTYPE svg PUBLIC "-//W3C//DTD SVG 1.1//EN" "http://www.w3.org/Graphics/SVG/1.1/DTD/svg11.dtd"><svg t="1723388701289" class="icon" viewBox="0 0 1024 1024" version="1.1" xmlns="http://www.w3.org/2000/svg" p-id="35229" xmlns:xlink="http://www.w3.org/1999/xlink" width="16" height="16"><path d="M512 85.33C276.74 85.33 85.33 276.73 85.33 512S276.74 938.67 512 938.67 938.67 747.27 938.67 512 747.26 85.33 512 85.33z m0 768c-188.21 0-341.33-153.12-341.33-341.33S323.79 170.67 512 170.67 853.33 323.79 853.33 512 700.21 853.33 512 853.33z" p-id="35230" fill="#2c2c2c"></path><path d="M469.33 682.67h85.33V768h-85.33zM512 256c-94.26 0-170.67 76.41-170.67 170.67h85.33c0-48.59 40.82-87.83 89.97-85.21 43.03 2.29 78.28 37.54 80.57 80.57C599.83 471.17 560.59 512 512 512v0.17c-23.85 1.74-42.67 21.59-42.67 45.88V640h85.33v-48.04c73.61-18.95 128-85.77 128-165.29C682.67 332.41 606.26 256 512 256z" p-id="35231" fill="#2c2c2c"></path></svg>