<?xml version="1.0" standalone="no"?><!DOCTYPE svg PUBLIC "-//W3C//DTD SVG 1.1//EN" "http://www.w3.org/Graphics/SVG/1.1/DTD/svg11.dtd"><svg t="1723306451852" class="icon" viewBox="0 0 1024 1024" version="1.1" xmlns="http://www.w3.org/2000/svg" p-id="14094" xmlns:xlink="http://www.w3.org/1999/xlink" width="16" height="16"><path d="M884.342501 0 651.628751 0 651.628751 93.08625 884.342501 93.08625C910.028751 93.08625 930.88625 113.97125 930.88625 139.62875L930.88625 372.371249 1024 372.371249 1024 139.6575C1024 62.5425 961.42875 0 884.342501 0ZM93.08625 139.6575C93.08625 113.97125 113.8975 93.08625 139.62875 93.08625L372.353749 93.08625 372.353749 0 139.62875 0C62.48625 0 0 62.5425 0 139.62875L0 372.371249 93.08625 372.371249 93.08625 139.6575ZM93.08625 884.371249 93.08625 651.628751 0 651.628751 0 884.371249C0 961.51375 62.4975 1024 139.62875 1024L372.353749 1024 372.353749 930.913749 139.62875 930.913749C113.8975 930.913749 93.08625 910.08625 93.08625 884.371249ZM930.88625 884.371249C930.88625 910.08625 910.028751 930.913749 884.342501 930.913749L651.628751 930.913749 651.628751 1024 884.342501 1024C961.42875 1024 1024 961.51375 1024 884.371249L1024 651.628751 930.885001 651.628751 930.88625 884.371249ZM712.089999 527.272499C712.089999 544.53375 698.104999 558.51875 680.842499 558.51875L343.157501 558.51875C325.895001 558.51875 311.910001 544.504999 311.910001 527.272499L311.910001 496.69875C311.910001 479.43625 325.925001 465.45125 343.157501 465.45125L680.842499 465.45125C698.13375 465.45125 712.089999 479.46625 712.089999 496.69875L712.089999 527.272499Z" fill="#8a8a8a" p-id="14095"></path></svg>