<?xml version="1.0" standalone="no"?><!DOCTYPE svg PUBLIC "-//W3C//DTD SVG 1.1//EN" "http://www.w3.org/Graphics/SVG/1.1/DTD/svg11.dtd"><svg t="1725202026644" class="icon" viewBox="0 0 1024 1024" version="1.1" xmlns="http://www.w3.org/2000/svg" p-id="123766" xmlns:xlink="http://www.w3.org/1999/xlink" width="128" height="128"><path d="M551.384615 788.164923H79.163077a39.384615 39.384615 0 0 1-39.384615-39.305846V277.346462a39.384615 39.384615 0 0 1 39.384615-39.305847h472.064a39.384615 39.384615 0 1 1 0 78.611693H118.547692v392.979692H551.384615a39.384615 39.384615 0 1 1 0 78.532923z m-314.761846-314.289231a39.384615 39.384615 0 1 0 0 78.532923H472.615385a39.384615 39.384615 0 1 0 0-78.611692H236.622769z m629.444923 471.512616H748.071385V80.896h117.996307a39.384615 39.384615 0 1 0 0-78.611692H551.384615a39.384615 39.384615 0 1 0 0 78.611692h118.075077v864.492308h-118.153846a39.384615 39.384615 0 1 0 0 78.611692h314.761846a39.384615 39.384615 0 1 0 0-78.611692z m78.769231-707.347693h-78.769231a39.384615 39.384615 0 1 0 0 78.611693h39.384616v392.979692h-39.384616a39.384615 39.384615 0 1 0 0 78.532923h78.769231a39.384615 39.384615 0 0 0 39.305846-39.227077V277.267692a39.384615 39.384615 0 0 0-39.384615-39.305846z" fill="#000000" p-id="123767"></path></svg>